<svg xmlns="http://www.w3.org/2000/svg" viewBox="0 0 32 32">
  <rect width="32" height="32" rx="8" fill="#4f46e5"/>
  <path d="M16 8C12.134 8 8.76117 9.567 6.34315 12.0941L8.46447 14.2154C10.375 12.2157 13.0457 11 16 11C18.9543 11 21.625 12.2157 23.5355 14.2154L25.6569 12.0941C23.2388 9.567 19.866 8 16 8Z" fill="white"/>
  <path d="M16 14C14.067 14 12.317 14.8954 11.1716 16.2929L13.2929 18.4142C13.9429 17.5359 14.9038 17 16 17C17.0962 17 18.0571 17.5359 18.7071 18.4142L20.8284 16.2929C19.683 14.8954 17.933 14 16 14Z" fill="white"/>
  <circle cx="16" cy="22" r="2.5" fill="white"/>
</svg>
